#!OML:ASF G:\JayActor3\Patient Classification 1\Patient 1\Session 6\male.ASF
:FULLY-SPECIFIED
:DEGREES
2239
root -2.13948 16.1591 -17.6346 12.0731 -36.5109 -2.20851
lowerback 27.6442 -1.90262 3.67037
upperback 3.55908 -1.35179 1.11149
thorax -11.4114 -0.805795 -0.352043
lowerneck -4.84501 2.89811 2.97361
upperneck 28.2338 4.80532 -6.22413
head 9.94775 1.72887 -2.26034
rclavicle -4.46769e-014 1.63997e-014
rhumerus -36.6793 7.84085 -86.7808
rradius 46.3492
rwrist 2.39275
rhand -21.274 -3.99863
rfingers 7.12502
rthumb 5.1098 -33.917
lclavicle -4.46769e-014 1.63997e-014
lhumerus -39.6971 -21.8006 89.5613
lradius 48.595
lwrist 39.028
lhand -25.1546 5.60138
lfingers 7.12502
lthumb 1.36224 35.5768
rfemur -36.2537 3.2094 26.7842
rtibia 46.5546
rfoot -23.4837 -17.1436
rtoes 6.04422
lfemur -39.3342 4.24927 -14.4332
ltibia 45.703
lfoot -7.65917 -8.79639
ltoes -1.98233
2240
root -2.16542 16.1614 -17.6477 11.848 -36.1299 -2.14927
lowerback 27.656 -1.88379 3.72184
upperback 3.54684 -1.3095 1.11482
thorax -11.4311 -0.788277 -0.392972
lowerneck -4.92581 2.92312 3.01331
upperneck 28.5821 4.83746 -6.17968
head 10.0936 1.74458 -2.25304
rclavicle 2.41026e-014 3.77691e-015
rhumerus -36.6171 7.755 -86.7385
rradius 46.2581
rwrist 2.43458
rhand -21.2746 -4.00921
rfingers 7.12502
rthumb 5.10919 -33.9276
lclavicle 2.41026e-014 3.77691e-015
lhumerus -39.6558 -22.0839 89.6645
lradius 48.4605
lwrist 39.1352
lhand -25.0495 5.60463
lfingers 7.12502
lthumb 1.46375 35.5794
rfemur -35.98 3.02123 26.8834
rtibia 46.4793
rfoot -23.5629 -17.3316
rtoes 6.11044
lfemur -39.6913 4.37865 -14.4929
ltibia 46.4525
lfoot -7.23745 -8.69195
ltoes -2.51719
2241
root -2.19177 16.164 -17.66 11.6332 -35.7328 -2.11292
lowerback 27.6691 -1.871 3.78673
upperback 3.53479 -1.26994 1.12619
thorax -11.4514 -0.772435 -0.431478
lowerneck -5.01165 2.94591 3.05213
upperneck 28.9233 4.86421 -6.12755
head 10.2383 1.75885 -2.24316
rclavicle -3.26007e-014 2.73329e-014
rhumerus -36.5627 7.68318 -86.7014
rradius 46.1822
rwrist 2.47407
rhand -21.2699 -4.02093
rfingers 7.12502
rthumb 5.11375 -33.9392
lclavicle -3.26007e-014 2.73329e-014
lhumerus -39.6265 -22.3658 89.7642
lradius 48.3606
lwrist 39.2666
lhand -24.9666 5.6553
lfingers 7.12502
lthumb 1.54384 35.6295
rfemur -35.6932 2.82824 27.0018
rtibia 46.396
rfoot -23.6526 -17.5202
rtoes 6.18845
lfemur -40.0691 4.55314 -14.5548
ltibia 47.2371
lfoot -6.94808 -8.5832
ltoes -3.31039
2242
root -2.21774 16.1663 -17.6713 11.4387 -35.3195 -2.10064
lowerback 27.6741 -1.86896 3.86906
upperback 3.52135 -1.23809 1.14758
thorax -11.4695 -0.760639 -0.465966
lowerneck -5.10073 2.969 3.08103
upperneck 29.2497 4.89066 -6.0696
head 10.3787 1.77303 -2.22912
rclavicle -6.98728e-014 -1.78906e-014
rhumerus -36.5109 7.6321 -86.6654
rradius 46.1159
rwrist 2.52755
rhand -21.2531 -4.02684
rfingers 7.12502
rthumb 5.12997 -33.9447
lclavicle -6.98728e-014 -1.78906e-014
lhumerus -39.6039 -22.6167 89.8552
lradius 48.2906
lwrist 39.3993
lhand -24.8935 5.72221
lfingers 7.12502
lthumb 1.6144 35.6958
rfemur -35.4086 2.62054 27.1391
rtibia 46.3084
rfoot -23.7441 -17.7007
rtoes 6.25353
lfemur -40.4817 4.76277 -14.6177
ltibia 48.0675
lfoot -6.83216 -8.52196
ltoes -4.23072
2243
root -2.24273 16.1681 -17.682 11.2615 -34.9091 -2.10498
lowerback 27.6753 -1.87049 3.95698
upperback 3.50505 -1.20848 1.175
thorax -11.4888 -0.750018 -0.496006
lowerneck -5.19286 2.99137 3.10257
upperneck 29.5587 4.91515 -6.00678
head 10.5136 1.78657 -2.21179
rclavicle 1.13407e-013 -1.82882e-014
rhumerus -36.4637 7.60655 -86.6349
rradius 46.0612
rwrist 2.57639
rhand -21.2474 -4.03687
rfingers 7.12502
rthumb 5.13551 -33.9546
lclavicle 1.13407e-013 -1.82882e-014
lhumerus -39.5644 -22.7982 89.9246
lradius 48.2186
lwrist 39.4927
lhand -24.8371 5.81594
lfingers 7.12502
lthumb 1.66886 35.7892
rfemur -35.1347 2.414 27.2843
rtibia 46.2209
rfoot -23.8293 -17.8713
rtoes 6.30571
lfemur -40.9291 4.99524 -14.6857
ltibia 48.9515
lfoot -6.91464 -8.52402
ltoes -5.2458
